<?xml version="1.0" encoding="UTF-8"?>
<svg width="1100" height="700" viewBox="0 0 1100 700" xmlns="http://www.w3.org/2000/svg" role="img" aria-labelledby="title desc">
  <title id="title">Motor de combustión clásico · Estático minimal</title>
  <desc id="desc">Motor clásico estilizado con bloque, culata, tapa de válvulas, bujías, colectores, filtro de aire, correa y poleas, cigüeñal y radiador. Paleta gris con acentos verdes.</desc>

  <defs>
    <!-- Paleta -->
    <linearGradient id="metalA" x1="0" y1="0" x2="1" y2="1">
      <stop offset="0%" stop-color="#E6EBE8"/>
      <stop offset="100%" stop-color="#A9B2A7"/>
    </linearGradient>
    <linearGradient id="metalB" x1="0" y1="0" x2="1" y2="1">
      <stop offset="0%" stop-color="#D7DED9"/>
      <stop offset="100%" stop-color="#8C9790"/>
    </linearGradient>
    <linearGradient id="green" x1="0" y1="0" x2="0" y2="1">
      <stop offset="0%" stop-color="#8FBF88"/>
      <stop offset="100%" stop-color="#2F6F3E"/>
    </linearGradient>

    <!-- Sombra suave -->
    <filter id="soft">
      <feDropShadow dx="0" dy="6" stdDeviation="10" flood-color="#000" flood-opacity=".22"/>
    </filter>
  </defs>

  <!-- Radiador estilizado -->
  <g transform="translate(130,235)" filter="url(#soft)">
    <rect x="0" y="0" width="110" height="210" rx="12" fill="url(#metalB)" stroke="#7F8A81" stroke-width="3"/>
    <rect x="16" y="20" width="78" height="170" rx="8" fill="#ffffff" opacity=".22" stroke="#9AA59C" stroke-width="2"/>
    <!-- aletas -->
    <g opacity=".28" stroke="#9AA59C">
      <line x1="24" y1="40" x2="86" y2="40"/>
      <line x1="24" y1="60" x2="86" y2="60"/>
      <line x1="24" y1="80" x2="86" y2="80"/>
      <line x1="24" y1="100" x2="86" y2="100"/>
      <line x1="24" y1="120" x2="86" y2="120"/>
      <line x1="24" y1="140" x2="86" y2="140"/>
      <line x1="24" y1="160" x2="86" y2="160"/>
    </g>
  </g>

  <!-- Manguito al radiador -->
  <path d="M240,300 C300,295 330,280 380,280" fill="none" stroke="url(#green)" stroke-width="10" stroke-linecap="round" opacity=".9"/>

  <!-- Bloque motor -->
  <g transform="translate(380,220)" filter="url(#soft)">
    <!-- bloque -->
    <rect x="0" y="60" width="520" height="240" rx="18" fill="url(#metalA)" stroke="#879288" stroke-width="3"/>
    <!-- tapas frontales -->
    <rect x="26" y="90" width="468" height="70" rx="10" fill="#fff" opacity=".35" stroke="#9AA59C" stroke-width="2"/>
    <rect x="26" y="170" width="320" height="70" rx="10" fill="#fff" opacity=".22" stroke="#9AA59C" stroke-width="2"/>

    <!-- culata -->
    <rect x="20" y="0" width="480" height="70" rx="14" fill="url(#metalB)" stroke="#7F8A81" stroke-width="3"/>
    <!-- tapa de válvulas -->
    <rect x="40" y="10" width="440" height="46" rx="10" fill="#ffffff" opacity=".6" stroke="#9AA59C" stroke-width="2"/>

    <!-- bujías (verdes) -->
    <g fill="url(#green)" stroke="#1F5C33" stroke-width="2">
      <rect x="90"  y="6" width="10" height="26" rx="3"/>
      <rect x="160" y="6" width="10" height="26" rx="3"/>
      <rect x="320" y="6" width="10" height="26" rx="3"/>
      <rect x="390" y="6" width="10" height="26" rx="3"/>
    </g>

    <!-- filtro de aire (verde) -->
    <g transform="translate(500,-18)">
      <rect x="-36" y="0" width="56" height="28" rx="10" fill="url(#green)"/>
      <rect x="-30" y="28" width="44" height="10" rx="5" fill="url(#green)" opacity=".7"/>
    </g>

    <!-- colectores de escape (curvas) -->
    <path d="M100,70 C100,110 110,140 130,160" fill="none" stroke="#8C9790" stroke-width="8" stroke-linecap="round" opacity=".9"/>
    <path d="M170,70 C170,110 180,140 200,160" fill="none" stroke="#8C9790" stroke-width="8" stroke-linecap="round" opacity=".9"/>
    <path d="M330,70 C330,110 340,140 360,160" fill="none" stroke="#8C9790" stroke-width="8" stroke-linecap="round" opacity=".9"/>
    <path d="M400,70 C400,110 410,140 430,160" fill="none" stroke="#8C9790" stroke-width="8" stroke-linecap="round" opacity=".9"/>

    <!-- placa frontal con tornillos -->
    <rect x="360" y="170" width="120" height="70" rx="10" fill="#fff" opacity=".25" stroke="#9AA59C" stroke-width="2"/>
    <g fill="#7F8A81">
      <circle cx="372" cy="182" r="4"/><circle cx="468" cy="182" r="4"/>
      <circle cx="372" cy="228" r="4"/><circle cx="468" cy="228" r="4"/>
    </g>
  </g>

  <!-- Correa + poleas (delantero) -->
  <g transform="translate(360,430)" filter="url(#soft)">
    <!-- polea cigüeñal -->
    <circle cx="160" cy="90" r="34" fill="url(#metalB)" stroke="#6E7870" stroke-width="3"/>
    <circle cx="160" cy="90" r="10" fill="url(#green)"/>

    <!-- polea alternador -->
    <circle cx="430" cy="10" r="24" fill="url(#metalB)" stroke="#6E7870" stroke-width="3"/>
    <circle cx="430" cy="10" r="7" fill="#DCE3DF"/>

    <!-- polea bomba -->
    <circle cx="300" cy="100" r="20" fill="url(#metalB)" stroke="#6E7870" stroke-width="3"/>
    <circle cx="300" cy="100" r="6" fill="#DCE3DF"/>

    <!-- correa en trapecio -->
    <path d="M160,90 L300,100 L430,10 L160,90 Z"
          fill="none" stroke="url(#green)" stroke-width="12" stroke-linejoin="round" opacity=".9"/>
  </g>

  <!-- Soportes / chasis -->
  <g opacity=".5" stroke="#9AA59C" stroke-width="4">
    <line x1="420" y1="500" x2="420" y2="540"/>
    <line x1="840" y1="500" x2="840" y2="540"/>
    <line x1="400" y1="540" x2="860" y2="540"/>
  </g>

  <!-- Luces/energía sutil -->
  <g opacity=".12">
    <circle cx="820" cy="210" r="80" fill="url(#green)"/>
    <circle cx="520" cy="520" r="110" fill="url(#green)"/>
  </g>
</svg>
